<svg id="scissor" xmlns="http://www.w3.org/2000/svg" viewBox="0 0 523.87 363.63">
  <defs>
    <style>
      .cls-1, .cls-3 {
        fill: none;
      }

      .cls-1, .cls-2, .cls-3 {
        stroke: #040000;
      }

      .cls-1, .cls-2, .cls-3, .cls-5 {
        stroke-miterlimit: 10;
      }

      .cls-1 {
        stroke-width: 13px;
      }

      .cls-2 {
        fill: #040000;
        stroke-width: 5px;
      }

      .cls-3 {
        stroke-width: 30px;
      }

      .cls-4 {
        fill: #fff;
      }

      .cls-5 {
        fill: #231815;
        stroke: #231815;
        stroke-width: 10px;
      }
    </style>
  </defs>
  <title>logo_MMDB1</title>
  <g>
    <g>
      <g>
        <path class="cls-1" d="M137.93,294.15a36.9,36.9,0,1,1-37-36.84A36.8,36.8,0,0,1,137.93,294.15Z" transform="translate(-57.63 -219.43)"/>
        <polygon class="cls-2" points="66.45 105.81 165.23 276.9 186.1 342.3 53.78 113.12 66.45 105.81"/>
      </g>
      <g>
        <path class="cls-1" d="M82.54,463.68a36.9,36.9,0,1,1-13.43,50.43A36.81,36.81,0,0,1,82.54,463.68Z" transform="translate(-57.63 -219.43)"/>
        <polygon class="cls-2" points="58.75 240.69 157.53 69.6 203.74 18.83 71.42 248.01 58.75 240.69"/>
      </g>
    </g>
    <rect class="cls-3" x="165.84" y="105.8" width="343.03" height="155.64"/>
    <g>
      <rect class="cls-4" x="173.6" y="98.3" width="25" height="15"/>
      <rect class="cls-4" x="220" y="98.3" width="25" height="15"/>
      <rect class="cls-4" x="266.18" y="98.3" width="25" height="15"/>
      <rect class="cls-4" x="312.36" y="98.3" width="25" height="15"/>
      <rect class="cls-4" x="358.39" y="98.3" width="25" height="15"/>
      <rect class="cls-4" x="401.07" y="98.3" width="25" height="15"/>
      <rect class="cls-4" x="447.42" y="98.3" width="25" height="15"/>
      <rect class="cls-4" x="483.87" y="98.3" width="25" height="15"/>
    </g>
    <g>
      <rect class="cls-4" x="169.72" y="253.94" width="25" height="15"/>
      <rect class="cls-4" x="216.12" y="253.94" width="25" height="15"/>
      <rect class="cls-4" x="262.3" y="253.94" width="25" height="15"/>
      <rect class="cls-4" x="308.48" y="253.94" width="25" height="15"/>
      <rect class="cls-4" x="354.51" y="253.94" width="25" height="15"/>
      <rect class="cls-4" x="397.2" y="253.94" width="25" height="15"/>
      <rect class="cls-4" x="443.54" y="253.94" width="25" height="15"/>
      <rect class="cls-4" x="479.99" y="253.94" width="25" height="15"/>
    </g>
    <g>
      <path class="cls-5" d="M323.66,428.27l-6,1.19L310,387.81l0-.06q-1.46,3-6.43,14t-9.69,22h-5.12q-4.43-10.2-9.76-22.06t-6.28-13.83h-.07q-.22,1-3,14.2t-5.31,27.37l-5.7-1q3.7-16,6.94-31.69t3.52-17l5.9-.85,5.25,12q4.89,11.08,11.49,25.56h.22q5.06-11.36,10.69-24.19t5.86-13.32l5.61.44q.11.82,3.08,16.27T323.66,428.27Z" transform="translate(-57.63 -219.43)"/>
      <path class="cls-5" d="M404.59,428.27l-6,1.19-7.66-41.65-.05-.06q-1.44,3-6.42,14t-9.7,22h-5.12q-4.41-10.2-9.76-22.06t-6.27-13.83h-.08q-.23,1-3,14.2t-5.31,27.37l-5.7-1q3.71-16,6.94-31.69t3.52-17l5.91-.85q.36.86,5.25,12t11.48,25.56h.22q5.06-11.36,10.69-24.19t5.86-13.32l5.61.44q.1.82,3.08,16.27T404.59,428.27Z" transform="translate(-57.63 -219.43)"/>
      <path class="cls-5" d="M467.1,404.45a20.62,20.62,0,0,1-3.2,11.46,24.73,24.73,0,0,1-8.33,7.94,36.7,36.7,0,0,1-9.91,4,50.4,50.4,0,0,1-12.3,1.38c-1.73,0-3.42,0-5.07-.08l-2.75-.07q0-.19.09-8.56t.1-15.86q0-4,0-10.21t-.17-15.14l3.39,0,3.25,0a61.19,61.19,0,0,1,13.62,1.37A34,34,0,0,1,456.43,385a21.66,21.66,0,0,1,10.67,19.49Zm-6.31,0a18.51,18.51,0,0,0-2.07-8.76,18,18,0,0,0-6.56-6.75,27.76,27.76,0,0,0-9.28-3.68,46.9,46.9,0,0,0-9.25-1H431.7q-.07,5.86-.09,9.73t0,6.16q0,1.64,0,7.62t.05,16.61h1.89a42.77,42.77,0,0,0,9.68-1.13,28.57,28.57,0,0,0,8.19-3.14,20.88,20.88,0,0,0,6.8-6.4A16.24,16.24,0,0,0,460.79,404.41Z" transform="translate(-57.63 -219.43)"/>
      <path class="cls-5" d="M525.28,414.39a12.1,12.1,0,0,1-1.91,6.68,14.15,14.15,0,0,1-5.54,4.86,26,26,0,0,1-7.08,2.43,45.68,45.68,0,0,1-8.83.76c-2.44,0-5,0-7.54-.13s-4-.14-4.32-.16q.12-7.12.15-13.45t0-12.08q0-10.92-.09-17.28t-.1-6.62c.35,0,1.71-.09,4.1-.19s4.7-.15,6.95-.15a46.53,46.53,0,0,1,7,.5,25.14,25.14,0,0,1,5.45,1.4,12.16,12.16,0,0,1,5.3,3.84,9.79,9.79,0,0,1,1.93,6.14,10.39,10.39,0,0,1-2.42,6.77,12.46,12.46,0,0,1-5.53,4v.37a17.06,17.06,0,0,1,5,1.2,12.59,12.59,0,0,1,4.22,2.81,11,11,0,0,1,2.4,3.52A12.11,12.11,0,0,1,525.28,414.39Zm-6.31.19a8.22,8.22,0,0,0-.67-3.4,9.76,9.76,0,0,0-2-2.87,9,9,0,0,0-3.47-2.05,14.61,14.61,0,0,0-4.81-.77c-1.38,0-2.5,0-3.35,0l-1.69,0-.6-4.45a20.78,20.78,0,0,0,4.85-.65,12,12,0,0,0,3.73-1.73,9.09,9.09,0,0,0,2.56-2.84,7.65,7.65,0,0,0,1-3.88,6.85,6.85,0,0,0-1.11-3.91,7.87,7.87,0,0,0-3-2.62,15,15,0,0,0-4-1.17,31.24,31.24,0,0,0-5.07-.39q-1.74,0-3.21.06l-1.87.06c-.07,3.61-.12,7.44-.13,11.5s0,7,0,8.83q0,6.39.06,12.82c0,4.3.06,6.59.06,6.89l2,.09c.83,0,1.62.06,2.39.06a64.91,64.91,0,0,0,7.91-.45,16.6,16.6,0,0,0,6.17-1.86,8.35,8.35,0,0,0,3.2-3A8.23,8.23,0,0,0,519,414.58Z" transform="translate(-57.63 -219.43)"/>
    </g>
  </g>
</svg>
